<mxfile host="app.diagrams.net" modified="2024-04-05T03:07:57.116Z" agent="Mozilla/5.0 (Macintosh; Intel Mac OS X 10_15_7) AppleWebKit/537.36 (KHTML, like Gecko) Chrome/108.0.0.0 Safari/537.36" version="21.2.9" etag="VTeGxBNAFOAVuW5S2iqy" type="github">
  <diagram name="第 1 页" id="qc6CNHC7bkXlQT2rg57_">
    <mxGraphModel>
      <root>
        <mxCell id="0" />
        <mxCell id="1" parent="0" />
      </root>
    </mxGraphModel>
  </diagram>
</mxfile>
